{
  "accessors": [
    {
      "bufferView": 2,
      "componentType": 5126,
      "count": 36493,
      "max": [
        138.7180938720703,
        86.86360168457031,
        40.929500579833984
      ],
      "min": [
        -138.71470642089844,
        -86.86170196533203,
        -40.92850112915039
      ],
      "type": "VEC3"
    },
    {
      "bufferView": 2,
      "byteOffset": 437916,
      "componentType": 5126,
      "count": 36493,
      "max": [
        0.9999594688415527,
        0.9997697472572327,
        0.9998496174812317
      ],
      "min": [
        -0.9999852180480957,
        -0.9998905658721924,
        -0.9999817609786987
      ],
      "type": "VEC3"
    },
    {
      "bufferView": 3,
      "componentType": 5126,
      "count": 36493,
      "max": [
        0.9998918175697327,
        0.9998164176940918,
        0.999353289604187,
        1.0
      ],
      "min": [
        -0.9995861649513245,
        -0.9999980926513672,
        -0.9995730519294739,
        -1.0
      ],
      "type": "VEC4"
    },
    {
      "bufferView": 1,
      "componentType": 5126,
      "count": 36493,
      "max": [
        1.000100016593933,
        0.9986000061035156
      ],
      "min": [
        0.0012000000569969416,
        0.002099999925121665
      ],
      "type": "VEC2"
    },
    {
      "bufferView": 0,
      "componentType": 5125,
      "count": 207576,
      "type": "SCALAR"
    }
  ],
  "asset": {
    "extras": {
      "author": "N8 (https://sketchfab.com/nathanmlange)",
      "license": "CC-BY-4.0 (http://creativecommons.org/licenses/by/4.0/)",
      "source": "https://sketchfab.com/3d-models/purple-dragon-4df9d4d70fa044e885acccad4bed1f5a",
      "title": "Purple Dragon"
    },
    "generator": "Sketchfab-12.68.0",
    "version": "2.0"
  },
  "bufferViews": [
    {
      "buffer": 0,
      "byteLength": 830304,
      "name": "floatBufferViews",
      "target": 34963
    },
    {
      "buffer": 0,
      "byteLength": 291944,
      "byteOffset": 830304,
      "byteStride": 8,
      "name": "floatBufferViews",
      "target": 34962
    },
    {
      "buffer": 0,
      "byteLength": 875832,
      "byteOffset": 1122248,
      "byteStride": 12,
      "name": "floatBufferViews",
      "target": 34962
    },
    {
      "buffer": 0,
      "byteLength": 583888,
      "byteOffset": 1998080,
      "byteStride": 16,
      "name": "floatBufferViews",
      "target": 34962
    }
  ],
  "buffers": [
    {
      "byteLength": 2581968,
      "uri": "scene.bin"
    }
  ],
  "images": [
    {
      "uri": "textures/16___Default2_baseColor.jpeg"
    },
    {
      "uri": "textures/16___Default2_metallicRoughness.png"
    },
    {
      "uri": "textures/16___Default2_emissive.jpeg"
    },
    {
      "uri": "textures/16___Default2_normal.png"
    }
  ],
  "materials": [
    {
      "emissiveFactor": [
        0.4,
        0.4,
        0.4
      ],
      "emissiveTexture": {
        "index": 2
      },
      "name": "16___Default2",
      "normalTexture": {
        "index": 3
      },
      "pbrMetallicRoughness": {
        "baseColorFactor": [
          0.0,
          0.0,
          0.0,
          1.0
        ],
        "baseColorTexture": {
          "index": 0
        },
        "metallicRoughnessTexture": {
          "index": 1
        }
      }
    }
  ],
  "meshes": [
    {
      "name": "Object_0",
      "primitives": [
        {
          "attributes": {
            "NORMAL": 1,
            "POSITION": 0,
            "TANGENT": 2,
            "TEXCOORD_0": 3
          },
          "indices": 4,
          "material": 0,
          "mode": 4
        }
      ]
    }
  ],
  "nodes": [
    {
      "children": [
        1
      ],
      "matrix": [
        1.0,
        0.0,
        0.0,
        0.0,
        0.0,
        2.220446049250313e-16,
        -1.0,
        0.0,
        0.0,
        1.0,
        2.220446049250313e-16,
        0.0,
        0.0,
        0.0,
        0.0,
        1.0
      ],
      "name": "Sketchfab_model"
    },
    {
      "children": [
        2
      ],
      "name": "NL_Dragon_high.obj.cleaner.materialmerger.gles"
    },
    {
      "mesh": 0,
      "name": "Object_2"
    }
  ],
  "samplers": [
    {
      "magFilter": 9729,
      "minFilter": 9987,
      "wrapS": 10497,
      "wrapT": 10497
    }
  ],
  "scene": 0,
  "scenes": [
    {
      "name": "Sketchfab_Scene",
      "nodes": [
        0
      ]
    }
  ],
  "textures": [
    {
      "sampler": 0,
      "source": 0
    },
    {
      "sampler": 0,
      "source": 1
    },
    {
      "sampler": 0,
      "source": 2
    },
    {
      "sampler": 0,
      "source": 3
    }
  ]
}
