{
  "accessors": [
    {
      "bufferView": 2,
      "componentType": 5126,
      "count": 561,
      "max": [
        51.12224578857422,
        52.064456939697266,
        52.06455993652344
      ],
      "min": [
        -53.00678634643555,
        -52.06450653076172,
        -52.064579010009766
      ],
      "type": "VEC3"
    },
    {
      "bufferView": 2,
      "byteOffset": 6732,
      "componentType": 5126,
      "count": 561,
      "max": [
        1.0,
        1.0,
        0.9951846599578857
      ],
      "min": [
        -0.9951847195625305,
        -0.9999180436134338,
        -0.9951847195625305
      ],
      "type": "VEC3"
    },
    {
      "bufferView": 1,
      "componentType": 5126,
      "count": 561,
      "max": [
        1.0,
        1.0
      ],
      "min": [
        0.0,
        0.0
      ],
      "type": "VEC2"
    },
    {
      "bufferView": 0,
      "componentType": 5125,
      "count": 3069,
      "type": "SCALAR"
    },
    {
      "bufferView": 2,
      "byteOffset": 13464,
      "componentType": 5126,
      "count": 3549,
      "max": [
        6.987856864929199,
        3.1291778087615967,
        9.30179500579834
      ],
      "min": [
        -6.987856864929199,
        -3.0296382904052734,
        -6.526994705200195
      ],
      "type": "VEC3"
    },
    {
      "bufferView": 2,
      "byteOffset": 56052,
      "componentType": 5126,
      "count": 3549,
      "max": [
        1.0,
        1.0,
        1.0
      ],
      "min": [
        -1.0,
        -1.0,
        -1.0
      ],
      "type": "VEC3"
    },
    {
      "bufferView": 1,
      "byteOffset": 4488,
      "componentType": 5126,
      "count": 3549,
      "max": [
        0.0,
        0.0
      ],
      "min": [
        0.0,
        0.0
      ],
      "type": "VEC2"
    },
    {
      "bufferView": 0,
      "byteOffset": 12276,
      "componentType": 5125,
      "count": 10620,
      "type": "SCALAR"
    },
    {
      "bufferView": 2,
      "byteOffset": 98640,
      "componentType": 5126,
      "count": 5695,
      "max": [
        6.987856864929199,
        3.1291778087615967,
        9.747122764587402
      ],
      "min": [
        -6.987856864929199,
        -3.0296382904052734,
        -6.526994705200195
      ],
      "type": "VEC3"
    },
    {
      "bufferView": 2,
      "byteOffset": 166980,
      "componentType": 5126,
      "count": 5695,
      "max": [
        1.0,
        1.0,
        1.0
      ],
      "min": [
        -1.0,
        -1.0,
        -1.0
      ],
      "type": "VEC3"
    },
    {
      "bufferView": 1,
      "byteOffset": 32880,
      "componentType": 5126,
      "count": 5695,
      "max": [
        0.0,
        0.0
      ],
      "min": [
        0.0,
        0.0
      ],
      "type": "VEC2"
    },
    {
      "bufferView": 0,
      "byteOffset": 54756,
      "componentType": 5125,
      "count": 11196,
      "type": "SCALAR"
    },
    {
      "bufferView": 2,
      "byteOffset": 235320,
      "componentType": 5126,
      "count": 150,
      "max": [
        4.686793327331543,
        0.1681540459394455,
        4.4114603996276855
      ],
      "min": [
        -4.686793327331543,
        -0.1681540459394455,
        -6.452306270599365
      ],
      "type": "VEC3"
    },
    {
      "bufferView": 2,
      "byteOffset": 237120,
      "componentType": 5126,
      "count": 150,
      "max": [
        1.0,
        0.04930625855922699,
        0.09937387704849243
      ],
      "min": [
        -1.0,
        -0.04930584877729416,
        -1.0
      ],
      "type": "VEC3"
    },
    {
      "bufferView": 1,
      "byteOffset": 78440,
      "componentType": 5126,
      "count": 150,
      "max": [
        0.0,
        0.0
      ],
      "min": [
        0.0,
        0.0
      ],
      "type": "VEC2"
    },
    {
      "bufferView": 0,
      "byteOffset": 99540,
      "componentType": 5125,
      "count": 408,
      "type": "SCALAR"
    },
    {
      "bufferView": 2,
      "byteOffset": 238920,
      "componentType": 5126,
      "count": 366,
      "max": [
        1.6303532123565674,
        0.22118322551250458,
        -0.6123338937759399
      ],
      "min": [
        -1.6303532123565674,
        -0.22118322551250458,
        -3.8683528900146484
      ],
      "type": "VEC3"
    },
    {
      "bufferView": 2,
      "byteOffset": 243312,
      "componentType": 5126,
      "count": 366,
      "max": [
        1.0,
        1.0,
        0.7045781016349792
      ],
      "min": [
        -1.0,
        -1.0,
        -1.0
      ],
      "type": "VEC3"
    },
    {
      "bufferView": 1,
      "byteOffset": 79640,
      "componentType": 5126,
      "count": 366,
      "max": [
        0.0,
        0.0
      ],
      "min": [
        0.0,
        0.0
      ],
      "type": "VEC2"
    },
    {
      "bufferView": 0,
      "byteOffset": 101172,
      "componentType": 5125,
      "count": 1104,
      "type": "SCALAR"
    },
    {
      "bufferView": 2,
      "byteOffset": 247704,
      "componentType": 5126,
      "count": 180,
      "max": [
        3.481137752532959,
        -0.5571339726448059,
        8.346044540405273
      ],
      "min": [
        -3.481137752532959,
        -1.4481844902038574,
        -4.472969055175781
      ],
      "type": "VEC3"
    },
    {
      "bufferView": 2,
      "byteOffset": 249864,
      "componentType": 5126,
      "count": 180,
      "max": [
        0.9999547600746155,
        0.5750022530555725,
        1.0
      ],
      "min": [
        -0.9999547004699707,
        -0.9998211860656738,
        -1.0
      ],
      "type": "VEC3"
    },
    {
      "bufferView": 1,
      "byteOffset": 82568,
      "componentType": 5126,
      "count": 180,
      "max": [
        0.0,
        0.0
      ],
      "min": [
        0.0,
        0.0
      ],
      "type": "VEC2"
    },
    {
      "bufferView": 0,
      "byteOffset": 105588,
      "componentType": 5125,
      "count": 300,
      "type": "SCALAR"
    },
    {
      "bufferView": 2,
      "byteOffset": 252024,
      "componentType": 5126,
      "count": 66,
      "max": [
        4.117465972900391,
        1.0363823175430298,
        9.078859329223633
      ],
      "min": [
        -4.117465972900391,
        -1.0363823175430298,
        9.078859329223633
      ],
      "type": "VEC3"
    },
    {
      "bufferView": 2,
      "byteOffset": 252816,
      "componentType": 5126,
      "count": 66,
      "max": [
        0.0,
        1.2042384696542285e-05,
        1.0
      ],
      "min": [
        0.0,
        -1.2042384696542285e-05,
        1.0
      ],
      "type": "VEC3"
    },
    {
      "bufferView": 1,
      "byteOffset": 84008,
      "componentType": 5126,
      "count": 66,
      "max": [
        0.0,
        0.0
      ],
      "min": [
        0.0,
        0.0
      ],
      "type": "VEC2"
    },
    {
      "bufferView": 0,
      "byteOffset": 106788,
      "componentType": 5125,
      "count": 240,
      "type": "SCALAR"
    },
    {
      "bufferView": 2,
      "byteOffset": 253608,
      "componentType": 5126,
      "count": 50,
      "max": [
        1.0133411884307861,
        1.2165685892105103,
        9.20543098449707
      ],
      "min": [
        -1.0133411884307861,
        -0.9813759326934814,
        9.20543098449707
      ],
      "type": "VEC3"
    },
    {
      "bufferView": 2,
      "byteOffset": 254208,
      "componentType": 5126,
      "count": 50,
      "max": [
        0.0,
        0.0,
        1.0
      ],
      "min": [
        0.0,
        0.0,
        1.0
      ],
      "type": "VEC3"
    },
    {
      "bufferView": 1,
      "byteOffset": 84536,
      "componentType": 5126,
      "count": 50,
      "max": [
        0.0,
        0.0
      ],
      "min": [
        0.0,
        0.0
      ],
      "type": "VEC2"
    },
    {
      "bufferView": 0,
      "byteOffset": 107748,
      "componentType": 5125,
      "count": 216,
      "type": "SCALAR"
    },
    {
      "bufferView": 2,
      "byteOffset": 254808,
      "componentType": 5126,
      "count": 195,
      "max": [
        1.658979058265686,
        3.0831618309020996,
        8.949684143066406
      ],
      "min": [
        -1.658978819847107,
        1.4511902332305908,
        3.3125510215759277
      ],
      "type": "VEC3"
    },
    {
      "bufferView": 2,
      "byteOffset": 257148,
      "componentType": 5126,
      "count": 195,
      "max": [
        0.9922189712524414,
        1.0,
        0.9448261857032776
      ],
      "min": [
        -0.9922189712524414,
        -1.0,
        -1.0
      ],
      "type": "VEC3"
    },
    {
      "bufferView": 1,
      "byteOffset": 84936,
      "componentType": 5126,
      "count": 195,
      "max": [
        0.96875,
        0.875
      ],
      "min": [
        0.0,
        0.0
      ],
      "type": "VEC2"
    },
    {
      "bufferView": 0,
      "byteOffset": 108612,
      "componentType": 5125,
      "count": 636,
      "type": "SCALAR"
    },
    {
      "bufferView": 2,
      "byteOffset": 259488,
      "componentType": 5126,
      "count": 268,
      "max": [
        1.658979058265686,
        3.139859199523926,
        8.949684143066406
      ],
      "min": [
        -1.658978819847107,
        1.4511902332305908,
        3.3125510215759277
      ],
      "type": "VEC3"
    },
    {
      "bufferView": 2,
      "byteOffset": 262704,
      "componentType": 5126,
      "count": 268,
      "max": [
        1.0,
        1.0,
        1.0
      ],
      "min": [
        -1.0,
        -1.0,
        -1.0
      ],
      "type": "VEC3"
    },
    {
      "bufferView": 1,
      "byteOffset": 86496,
      "componentType": 5126,
      "count": 268,
      "max": [
        1.0,
        0.875
      ],
      "min": [
        0.0,
        0.0
      ],
      "type": "VEC2"
    },
    {
      "bufferView": 0,
      "byteOffset": 111156,
      "componentType": 5125,
      "count": 768,
      "type": "SCALAR"
    },
    {
      "bufferView": 2,
      "byteOffset": 265920,
      "componentType": 5126,
      "count": 429,
      "max": [
        1.0883413553237915,
        1.291568636894226,
        9.355430603027344
      ],
      "min": [
        -1.0883411169052124,
        -1.0563758611679077,
        9.20543098449707
      ],
      "type": "VEC3"
    },
    {
      "bufferView": 2,
      "byteOffset": 271068,
      "componentType": 5126,
      "count": 429,
      "max": [
        0.7071060538291931,
        0.7071102261543274,
        0.70711350440979
      ],
      "min": [
        -0.7071060538291931,
        -0.7071102261543274,
        -0.7071084380149841
      ],
      "type": "VEC3"
    },
    {
      "bufferView": 1,
      "byteOffset": 88640,
      "componentType": 5126,
      "count": 429,
      "max": [
        1.0,
        1.0
      ],
      "min": [
        0.0,
        0.0
      ],
      "type": "VEC2"
    },
    {
      "bufferView": 0,
      "byteOffset": 114228,
      "componentType": 5125,
      "count": 672,
      "type": "SCALAR"
    },
    {
      "bufferView": 2,
      "byteOffset": 276216,
      "componentType": 5126,
      "count": 9666,
      "max": [
        1.7001546621322632,
        3.18868350982666,
        8.998562812805176
      ],
      "min": [
        -1.7001546621322632,
        1.7943589687347412,
        6.047825336456299
      ],
      "type": "VEC3"
    },
    {
      "bufferView": 2,
      "byteOffset": 392208,
      "componentType": 5126,
      "count": 9666,
      "max": [
        1.0,
        1.0,
        1.0
      ],
      "min": [
        -1.0,
        -1.0,
        -1.0
      ],
      "type": "VEC3"
    },
    {
      "bufferView": 0,
      "byteOffset": 116916,
      "componentType": 5125,
      "count": 56106,
      "type": "SCALAR"
    },
    {
      "bufferView": 2,
      "byteOffset": 508200,
      "componentType": 5126,
      "count": 616,
      "max": [
        4.114990234375,
        1.0342469215393066,
        13.612882614135742
      ],
      "min": [
        -4.114990234375,
        -1.0342469215393066,
        9.078859329223633
      ],
      "type": "VEC3"
    },
    {
      "bufferView": 2,
      "byteOffset": 515592,
      "componentType": 5126,
      "count": 616,
      "max": [
        0.9989182353019714,
        0.9991948008537292,
        1.0
      ],
      "min": [
        -0.9989182353019714,
        -0.9991948008537292,
        -1.0
      ],
      "type": "VEC3"
    },
    {
      "bufferView": 1,
      "byteOffset": 92072,
      "componentType": 5126,
      "count": 616,
      "max": [
        0.0,
        0.0
      ],
      "min": [
        0.0,
        0.0
      ],
      "type": "VEC2"
    },
    {
      "bufferView": 0,
      "byteOffset": 341340,
      "componentType": 5125,
      "count": 2880,
      "type": "SCALAR"
    }
  ],
  "asset": {
    "extras": {
      "author": "Rosbergen Designs (https://sketchfab.com/RosbergenDesigns)",
      "license": "CC-BY-4.0 (http://creativecommons.org/licenses/by/4.0/)",
      "source": "https://sketchfab.com/3d-models/spaceship-bident-fighter-bbf54b73c1344d6abf916ead07f3b3a0",
      "title": "Spaceship Bident Fighter"
    },
    "generator": "Sketchfab-13.74.0",
    "version": "2.0"
  },
  "bufferViews": [
    {
      "buffer": 0,
      "byteLength": 352860,
      "name": "floatBufferViews",
      "target": 34963
    },
    {
      "buffer": 0,
      "byteLength": 97000,
      "byteOffset": 352860,
      "byteStride": 8,
      "name": "floatBufferViews",
      "target": 34962
    },
    {
      "buffer": 0,
      "byteLength": 522984,
      "byteOffset": 449860,
      "byteStride": 12,
      "name": "floatBufferViews",
      "target": 34962
    }
  ],
  "buffers": [
    {
      "byteLength": 972844,
      "uri": "scene.bin"
    }
  ],
  "extensionsUsed": [
    "KHR_materials_clearcoat"
  ],
  "images": [
    {
      "uri": "textures/material_baseColor.png"
    }
  ],
  "materials": [
    {
      "doubleSided": true,
      "name": "material",
      "pbrMetallicRoughness": {
        "baseColorTexture": {
          "index": 0
        },
        "metallicFactor": 0.0,
        "roughnessFactor": 0.5
      }
    },
    {
      "doubleSided": true,
      "name": "Body_Main",
      "pbrMetallicRoughness": {
        "baseColorFactor": [
          0.0,
          0.05454309999999998,
          0.029088800000000012,
          1.0
        ],
        "roughnessFactor": 0.3
      }
    },
    {
      "doubleSided": true,
      "extensions": {
        "KHR_materials_clearcoat": {
          "clearcoatFactor": 1.0,
          "clearcoatRoughnessFactor": 0.04
        }
      },
      "name": "Body_Chrome",
      "pbrMetallicRoughness": {
        "baseColorFactor": [
          0.507065,
          0.507065,
          0.507065,
          1.0
        ],
        "roughnessFactor": 0.275
      }
    },
    {
      "doubleSided": true,
      "emissiveFactor": [
        0.2879525,
        0.8358450000000001,
        0.17335050000000002
      ],
      "name": "material_3",
      "pbrMetallicRoughness": {
        "baseColorFactor": [
          0.8,
          0.8,
          0.8,
          1.0
        ],
        "metallicFactor": 0.0,
        "roughnessFactor": 0.0
      }
    },
    {
      "doubleSided": true,
      "extensions": {
        "KHR_materials_clearcoat": {
          "clearcoatFactor": 1.0,
          "clearcoatRoughnessFactor": 1.0
        }
      },
      "name": "Stainless_Steel",
      "pbrMetallicRoughness": {
        "baseColorFactor": [
          0.774268,
          0.774268,
          0.774268,
          1.0
        ],
        "roughnessFactor": 0.15
      }
    },
    {
      "doubleSided": true,
      "name": "Landing_Gear",
      "pbrMetallicRoughness": {
        "baseColorFactor": [
          0.0,
          0.0,
          0.0,
          1.0
        ],
        "metallicFactor": 0.0,
        "roughnessFactor": 0.5
      }
    },
    {
      "doubleSided": true,
      "emissiveFactor": [
        0.42921,
        0.131866,
        0.0299771
      ],
      "name": "Propellant",
      "pbrMetallicRoughness": {
        "baseColorFactor": [
          0.281007,
          0.218208,
          0.0258068,
          1.0
        ],
        "metallicFactor": 0.0,
        "roughnessFactor": 0.468504
      }
    },
    {
      "doubleSided": true,
      "name": "Body_Main_Dark",
      "pbrMetallicRoughness": {
        "baseColorFactor": [
          0.0146687,
          0.000820865,
          0.0,
          1.0
        ],
        "roughnessFactor": 0.25
      }
    },
    {
      "doubleSided": true,
      "extensions": {
        "KHR_materials_clearcoat": {
          "clearcoatFactor": 1.0,
          "clearcoatRoughnessFactor": 0.04
        }
      },
      "name": "Polycarbonate",
      "pbrMetallicRoughness": {
        "baseColorFactor": [
          0.0771627,
          0.0824346,
          0.0871377,
          1.0
        ],
        "metallicFactor": 0.0,
        "roughnessFactor": 0.15
      }
    },
    {
      "doubleSided": true,
      "name": "Grill",
      "pbrMetallicRoughness": {
        "baseColorFactor": [
          0.0,
          0.0,
          0.0,
          1.0
        ],
        "metallicFactor": 0.0
      }
    }
  ],
  "meshes": [
    {
      "name": "Object_0",
      "primitives": [
        {
          "attributes": {
            "NORMAL": 1,
            "POSITION": 0,
            "TEXCOORD_0": 2
          },
          "indices": 3,
          "material": 0,
          "mode": 4
        }
      ]
    },
    {
      "name": "Object_1",
      "primitives": [
        {
          "attributes": {
            "NORMAL": 5,
            "POSITION": 4,
            "TEXCOORD_0": 6
          },
          "indices": 7,
          "material": 1,
          "mode": 4
        }
      ]
    },
    {
      "name": "Object_2",
      "primitives": [
        {
          "attributes": {
            "NORMAL": 9,
            "POSITION": 8,
            "TEXCOORD_0": 10
          },
          "indices": 11,
          "material": 2,
          "mode": 4
        }
      ]
    },
    {
      "name": "Object_3",
      "primitives": [
        {
          "attributes": {
            "NORMAL": 13,
            "POSITION": 12,
            "TEXCOORD_0": 14
          },
          "indices": 15,
          "material": 3,
          "mode": 4
        }
      ]
    },
    {
      "name": "Object_4",
      "primitives": [
        {
          "attributes": {
            "NORMAL": 17,
            "POSITION": 16,
            "TEXCOORD_0": 18
          },
          "indices": 19,
          "material": 4,
          "mode": 4
        }
      ]
    },
    {
      "name": "Object_5",
      "primitives": [
        {
          "attributes": {
            "NORMAL": 21,
            "POSITION": 20,
            "TEXCOORD_0": 22
          },
          "indices": 23,
          "material": 5,
          "mode": 4
        }
      ]
    },
    {
      "name": "Object_6",
      "primitives": [
        {
          "attributes": {
            "NORMAL": 25,
            "POSITION": 24,
            "TEXCOORD_0": 26
          },
          "indices": 27,
          "material": 6,
          "mode": 4
        }
      ]
    },
    {
      "name": "Object_7",
      "primitives": [
        {
          "attributes": {
            "NORMAL": 29,
            "POSITION": 28,
            "TEXCOORD_0": 30
          },
          "indices": 31,
          "material": 7,
          "mode": 4
        }
      ]
    },
    {
      "name": "Object_8",
      "primitives": [
        {
          "attributes": {
            "NORMAL": 33,
            "POSITION": 32,
            "TEXCOORD_0": 34
          },
          "indices": 35,
          "material": 8,
          "mode": 4
        }
      ]
    },
    {
      "name": "Object_9",
      "primitives": [
        {
          "attributes": {
            "NORMAL": 37,
            "POSITION": 36,
            "TEXCOORD_0": 38
          },
          "indices": 39,
          "material": 4,
          "mode": 4
        }
      ]
    },
    {
      "name": "Object_10",
      "primitives": [
        {
          "attributes": {
            "NORMAL": 41,
            "POSITION": 40,
            "TEXCOORD_0": 42
          },
          "indices": 43,
          "material": 9,
          "mode": 4
        }
      ]
    },
    {
      "name": "Object_11",
      "primitives": [
        {
          "attributes": {
            "NORMAL": 45,
            "POSITION": 44
          },
          "indices": 46,
          "material": 4,
          "mode": 4
        }
      ]
    },
    {
      "name": "Object_12",
      "primitives": [
        {
          "attributes": {
            "NORMAL": 48,
            "POSITION": 47,
            "TEXCOORD_0": 49
          },
          "indices": 50,
          "material": 6,
          "mode": 4
        }
      ]
    }
  ],
  "nodes": [
    {
      "children": [
        1
      ],
      "matrix": [
        1.0,
        0.0,
        0.0,
        0.0,
        0.0,
        2.220446049250313e-16,
        -1.0,
        0.0,
        0.0,
        1.0,
        2.220446049250313e-16,
        0.0,
        0.0,
        0.0,
        0.0,
        1.0
      ],
      "name": "Sketchfab_model"
    },
    {
      "children": [
        2
      ],
      "name": "root"
    },
    {
      "children": [
        3,
        5,
        13,
        16,
        18,
        20
      ],
      "matrix": [
        1.0,
        0.0,
        0.0,
        0.0,
        0.0,
        2.220446049250313e-16,
        1.0,
        0.0,
        0.0,
        -1.0,
        2.220446049250313e-16,
        0.0,
        0.0,
        0.0,
        0.0,
        1.0
      ],
      "name": "GLTF_SceneRootNode"
    },
    {
      "children": [
        4
      ],
      "matrix": [
        1.0,
        0.0,
        0.0,
        0.0,
        0.0,
        1.685873969314855e-07,
        0.9999999999999857,
        0.0,
        0.0,
        -0.9999999999999857,
        1.685873969314855e-07,
        0.0,
        0.0,
        0.0,
        0.0,
        1.0
      ],
      "name": "Galaxy_0"
    },
    {
      "mesh": 0,
      "name": "Object_4"
    },
    {
      "children": [
        6,
        7,
        8,
        9,
        10,
        11,
        12
      ],
      "name": "Main_Body_1"
    },
    {
      "mesh": 1,
      "name": "Object_6"
    },
    {
      "mesh": 2,
      "name": "Object_7"
    },
    {
      "mesh": 3,
      "name": "Object_8"
    },
    {
      "mesh": 4,
      "name": "Object_9"
    },
    {
      "mesh": 5,
      "name": "Object_10"
    },
    {
      "mesh": 6,
      "name": "Object_11"
    },
    {
      "mesh": 7,
      "name": "Object_12"
    },
    {
      "children": [
        14,
        15
      ],
      "name": "Pilot_Cabin_2"
    },
    {
      "mesh": 8,
      "name": "Object_14"
    },
    {
      "mesh": 9,
      "name": "Object_15"
    },
    {
      "children": [
        17
      ],
      "name": "Grill_3"
    },
    {
      "mesh": 10,
      "name": "Object_17"
    },
    {
      "children": [
        19
      ],
      "name": "Bolts_4"
    },
    {
      "mesh": 11,
      "name": "Object_19"
    },
    {
      "children": [
        21
      ],
      "name": "Propellant_5"
    },
    {
      "mesh": 12,
      "name": "Object_21"
    }
  ],
  "samplers": [
    {
      "magFilter": 9729,
      "minFilter": 9987,
      "wrapS": 33071,
      "wrapT": 33071
    }
  ],
  "scene": 0,
  "scenes": [
    {
      "name": "Sketchfab_Scene",
      "nodes": [
        0
      ]
    }
  ],
  "textures": [
    {
      "sampler": 0,
      "source": 0
    }
  ]
}
