{
  "accessors": [
    {
      "bufferView": 2,
      "componentType": 5126,
      "count": 3453,
      "max": [
        0.633043646812439,
        1.052488088607788,
        0.7577455043792725
      ],
      "min": [
        -0.5516274571418762,
        -0.65522700548172,
        -0.7580373883247375
      ],
      "type": "VEC3"
    },
    {
      "bufferView": 2,
      "byteOffset": 41436,
      "componentType": 5126,
      "count": 3453,
      "max": [
        1.0,
        1.0,
        1.0
      ],
      "min": [
        -1.0,
        -1.0,
        -1.0
      ],
      "type": "VEC3"
    },
    {
      "bufferView": 1,
      "componentType": 5126,
      "count": 3453,
      "max": [
        1.0,
        1.0
      ],
      "min": [
        -0.013686887919902802,
        0.0
      ],
      "type": "VEC2"
    },
    {
      "bufferView": 0,
      "componentType": 5125,
      "count": 7416,
      "type": "SCALAR"
    },
    {
      "bufferView": 2,
      "byteOffset": 82872,
      "componentType": 5126,
      "count": 415,
      "max": [
        1.0,
        1.0,
        1.0
      ],
      "min": [
        -1.0,
        -0.927512526512146,
        -1.0
      ],
      "type": "VEC3"
    },
    {
      "bufferView": 2,
      "byteOffset": 87852,
      "componentType": 5126,
      "count": 415,
      "max": [
        1.0,
        0.990446925163269,
        1.0
      ],
      "min": [
        -1.0,
        0.0,
        -1.0
      ],
      "type": "VEC3"
    },
    {
      "bufferView": 1,
      "byteOffset": 27624,
      "componentType": 5126,
      "count": 415,
      "max": [
        1.0,
        1.0
      ],
      "min": [
        0.0,
        0.025915542617440224
      ],
      "type": "VEC2"
    },
    {
      "bufferView": 0,
      "byteOffset": 29664,
      "componentType": 5125,
      "count": 1050,
      "type": "SCALAR"
    },
    {
      "bufferView": 2,
      "byteOffset": 92832,
      "componentType": 5126,
      "count": 334,
      "max": [
        1.0,
        1.0,
        1.0
      ],
      "min": [
        -1.0,
        -1.0,
        -1.0
      ],
      "type": "VEC3"
    },
    {
      "bufferView": 2,
      "byteOffset": 96840,
      "componentType": 5126,
      "count": 334,
      "max": [
        1.0,
        1.0,
        1.0
      ],
      "min": [
        -1.0,
        -1.0,
        -1.0
      ],
      "type": "VEC3"
    },
    {
      "bufferView": 1,
      "byteOffset": 30944,
      "componentType": 5126,
      "count": 334,
      "max": [
        1.0,
        1.0
      ],
      "min": [
        0.0,
        0.01000000536441803
      ],
      "type": "VEC2"
    },
    {
      "bufferView": 0,
      "byteOffset": 33864,
      "componentType": 5125,
      "count": 984,
      "type": "SCALAR"
    },
    {
      "bufferView": 2,
      "byteOffset": 100848,
      "componentType": 5126,
      "count": 8267,
      "max": [
        0.7431115508079529,
        1.0856956243515015,
        0.7577736973762512
      ],
      "min": [
        -0.7727277874946594,
        -0.8201505541801453,
        -0.7580655813217163
      ],
      "type": "VEC3"
    },
    {
      "bufferView": 2,
      "byteOffset": 200052,
      "componentType": 5126,
      "count": 8267,
      "max": [
        1.0,
        1.0,
        1.0
      ],
      "min": [
        -1.0,
        -1.0,
        -1.0
      ],
      "type": "VEC3"
    },
    {
      "bufferView": 1,
      "byteOffset": 33616,
      "componentType": 5126,
      "count": 8267,
      "max": [
        1.0109161138534546,
        1.0094614028930664
      ],
      "min": [
        -0.015268697403371334,
        0.0
      ],
      "type": "VEC2"
    },
    {
      "bufferView": 0,
      "byteOffset": 37800,
      "componentType": 5125,
      "count": 22368,
      "type": "SCALAR"
    },
    {
      "bufferView": 2,
      "byteOffset": 299256,
      "componentType": 5126,
      "count": 786,
      "max": [
        0.6906853914260864,
        0.5285731554031372,
        0.7053475379943848
      ],
      "min": [
        -0.720301628112793,
        -0.65522700548172,
        -0.7056394219398499
      ],
      "type": "VEC3"
    },
    {
      "bufferView": 2,
      "byteOffset": 308688,
      "componentType": 5126,
      "count": 786,
      "max": [
        1.0,
        1.0,
        1.0
      ],
      "min": [
        -1.0,
        -1.0,
        -1.0
      ],
      "type": "VEC3"
    },
    {
      "bufferView": 1,
      "byteOffset": 99752,
      "componentType": 5126,
      "count": 786,
      "max": [
        1.0,
        0.8821433782577515
      ],
      "min": [
        0.0,
        0.5412308573722839
      ],
      "type": "VEC2"
    },
    {
      "bufferView": 0,
      "byteOffset": 127272,
      "componentType": 5125,
      "count": 2016,
      "type": "SCALAR"
    }
  ],
  "asset": {
    "extras": {
      "author": "that1fungi (https://sketchfab.com/that1fungi)",
      "license": "CC-BY-4.0 (http://creativecommons.org/licenses/by/4.0/)",
      "source": "https://sketchfab.com/3d-models/lightsaber-blue-97189f8c94b6421ab7df7cbf76a4b27c",
      "title": "Lightsaber (blue)"
    },
    "generator": "Sketchfab-13.58.0",
    "version": "2.0"
  },
  "bufferViews": [
    {
      "buffer": 0,
      "byteLength": 135336,
      "name": "floatBufferViews",
      "target": 34963
    },
    {
      "buffer": 0,
      "byteLength": 106040,
      "byteOffset": 135336,
      "byteStride": 8,
      "name": "floatBufferViews",
      "target": 34962
    },
    {
      "buffer": 0,
      "byteLength": 318120,
      "byteOffset": 241376,
      "byteStride": 12,
      "name": "floatBufferViews",
      "target": 34962
    }
  ],
  "buffers": [
    {
      "byteLength": 559496,
      "uri": "scene.bin"
    }
  ],
  "materials": [
    {
      "doubleSided": true,
      "name": "Material.002"
    },
    {
      "doubleSided": true,
      "emissiveFactor": [
        0.4315581185704499,
        0.7145657009593144,
        1.0
      ],
      "name": "Material.001",
      "pbrMetallicRoughness": {
        "baseColorFactor": [
          0.0,
          0.052364730748566395,
          1.0,
          1.0
        ]
      }
    },
    {
      "doubleSided": true,
      "name": "Material.005",
      "pbrMetallicRoughness": {
        "baseColorFactor": [
          0.0,
          0.0,
          0.0,
          1.0
        ],
        "metallicFactor": 0.0,
        "roughnessFactor": 0.35773219102594545
      }
    },
    {
      "doubleSided": true,
      "name": "Material.003",
      "pbrMetallicRoughness": {
        "roughnessFactor": 0.24647900188151917
      }
    }
  ],
  "meshes": [
    {
      "name": "Object_0",
      "primitives": [
        {
          "attributes": {
            "NORMAL": 1,
            "POSITION": 0,
            "TEXCOORD_0": 2
          },
          "indices": 3,
          "material": 0,
          "mode": 4
        }
      ]
    },
    {
      "name": "Object_1",
      "primitives": [
        {
          "attributes": {
            "NORMAL": 5,
            "POSITION": 4,
            "TEXCOORD_0": 6
          },
          "indices": 7,
          "material": 1,
          "mode": 4
        }
      ]
    },
    {
      "name": "Object_2",
      "primitives": [
        {
          "attributes": {
            "NORMAL": 9,
            "POSITION": 8,
            "TEXCOORD_0": 10
          },
          "indices": 11,
          "material": 2,
          "mode": 4
        }
      ]
    },
    {
      "name": "Object_3",
      "primitives": [
        {
          "attributes": {
            "NORMAL": 13,
            "POSITION": 12,
            "TEXCOORD_0": 14
          },
          "indices": 15,
          "material": 3,
          "mode": 4
        }
      ]
    },
    {
      "name": "Object_4",
      "primitives": [
        {
          "attributes": {
            "NORMAL": 17,
            "POSITION": 16,
            "TEXCOORD_0": 18
          },
          "indices": 19,
          "material": 2,
          "mode": 4
        }
      ]
    }
  ],
  "nodes": [
    {
      "children": [
        1
      ],
      "matrix": [
        0.04959515482187271,
        0.0,
        0.0,
        0.0,
        0.0,
        1.1012336558618488e-17,
        -0.04959515482187271,
        0.0,
        0.0,
        0.04959515482187271,
        1.1012336558618488e-17,
        0.0,
        0.0,
        0.0,
        0.0,
        1.0
      ],
      "name": "Sketchfab_model"
    },
    {
      "children": [
        2
      ],
      "name": "root"
    },
    {
      "children": [
        3,
        5,
        7,
        9
      ],
      "matrix": [
        1.0,
        0.0,
        0.0,
        0.0,
        0.0,
        2.220446049250313e-16,
        1.0,
        0.0,
        0.0,
        -1.0,
        2.220446049250313e-16,
        0.0,
        0.0,
        0.0,
        0.0,
        1.0
      ],
      "name": "GLTF_SceneRootNode"
    },
    {
      "children": [
        4
      ],
      "matrix": [
        1.0,
        0.0,
        0.0,
        0.0,
        0.0,
        4.116583824157715,
        0.0,
        0.0,
        0.0,
        0.0,
        1.0,
        0.0,
        0.0,
        0.0,
        0.0,
        1.0
      ],
      "name": "Cylinder_2"
    },
    {
      "mesh": 0,
      "name": "Object_4"
    },
    {
      "children": [
        6
      ],
      "matrix": [
        0.3232107162475586,
        0.0,
        0.0,
        0.0,
        0.0,
        7.128818511962891,
        0.0,
        0.0,
        0.0,
        0.0,
        0.3232107162475586,
        0.0,
        -0.013993248343467712,
        11.04400634765625,
        -0.0012721134116873145,
        1.0
      ],
      "name": "Cylinder.001_3"
    },
    {
      "mesh": 1,
      "name": "Object_6"
    },
    {
      "children": [
        8
      ],
      "matrix": [
        0.5541113615036011,
        0.0,
        0.0,
        0.0,
        0.0,
        0.5541113615036011,
        0.0,
        0.0,
        0.0,
        0.0,
        0.5541113615036011,
        0.0,
        0.0,
        5.000967502593994,
        0.0,
        1.0
      ],
      "name": "Cylinder.002_4"
    },
    {
      "mesh": 2,
      "name": "Object_8"
    },
    {
      "children": [
        10,
        11
      ],
      "matrix": [
        1.0,
        0.0,
        0.0,
        0.0,
        0.0,
        4.116583824157715,
        0.0,
        0.0,
        0.0,
        0.0,
        1.0,
        0.0,
        0.0,
        0.0,
        0.0,
        1.0
      ],
      "name": "Cylinder.003_5"
    },
    {
      "mesh": 3,
      "name": "Object_10"
    },
    {
      "mesh": 4,
      "name": "Object_11"
    }
  ],
  "scene": 0,
  "scenes": [
    {
      "name": "Sketchfab_Scene",
      "nodes": [
        0
      ]
    }
  ]
}
